<svg width="194" height="24" viewBox="0 0 194 24" fill="none" xmlns="http://www.w3.org/2000/svg">
<path d="M0 13.1364C0 26.2395 19.0735 26.2395 19.0735 13.1364C19.0735 -6.7234e-05 0 -6.7234e-05 0 13.1364ZM4.88152 13.1364C4.88152 6.35091 14.192 6.35091 14.192 13.1364C14.095 14.3398 13.5454 15.4428 12.7049 16.2451C11.832 17.0473 10.7005 17.5153 9.53674 17.5153C8.37294 17.5153 7.24146 17.0807 6.3686 16.2451C5.52808 15.4094 4.9785 14.3063 4.88152 13.1364ZM28.19 3.60996H23.4054V22.596H34.9465V18.1838H28.19V3.60996ZM43.9337 9.96094H43.7074L40.3776 3.64339H35.2698V4.31192L41.4767 14.6072V22.6295H46.132V14.6072L52.4683 4.31192V3.64339H47.2635L43.9337 9.96094ZM64.7852 11.766L57.4791 3.50968H55.701V22.6295H60.5826V14.1392L64.5589 18.3175H65.1085L69.0848 14.1392V22.6295H73.9663V3.64339H72.3176L64.7852 11.766ZM87.5117 3.60996H79.3004V22.596H84.085V17.7492H87.5117C96.3696 17.7492 96.3696 3.60996 87.5117 3.60996ZM87.5117 13.337H84.085V7.92194H87.5117C90.2919 8.02222 90.0656 13.337 87.5117 13.337ZM104.581 7.92194H109.139V22.6295H113.794V7.92194H118.353V3.64339H104.613V7.92194H104.581ZM130.217 3.60996H122.006V22.596H126.758V17.0473H129.182L132.383 22.596H137.717V21.9275L134.064 15.8105C138.849 12.6685 137.523 3.60996 130.217 3.60996ZM130.217 12.6685H126.79V7.92194H130.217C132.868 8.02222 132.771 12.6685 130.217 12.6685ZM148.159 3.4094L139.721 21.9609V22.6295H144.377L145.476 20.2562H152.782L153.881 22.6295H158.536V21.9609L150.293 3.4094H148.159ZM147.189 16.0779L149.29 11.0974L151.392 16.0779H147.189ZM168.817 3.60996H161.834V22.596H168.817C180.875 22.6295 180.875 3.60996 168.817 3.60996ZM168.817 18.2172H166.586V8.02222H168.817C174.668 8.02222 174.668 18.2172 168.817 18.2172ZM186.888 18.3175V14.908H193.224V10.596H186.888V7.88851H193.774V3.60996H182.136V22.596H194V18.2841L186.888 18.3175Z" fill="white"/>
<path d="M9.31045 14.9415L2.10132 24H16.5196L9.31045 14.9415Z" fill="#2AA76D"/>
<path d="M57.8994 0L64.5589 6.78553L71.2185 0H57.8994Z" fill="#DF553A"/>
</svg>
